<svg width="60" height="56" viewBox="0 0 60 56" fill="none" xmlns="http://www.w3.org/2000/svg">
<g clip-path="url(#clip0_11_7979)">
<mask id="mask0_11_7979" style="mask-type:luminance" maskUnits="userSpaceOnUse" x="0" y="0" width="34" height="56">
<path d="M0.864868 0H33.6577V55.9133H0.864868V0Z" fill="white"/>
</mask>
<g mask="url(#mask0_11_7979)">
<path d="M15.2511 28.8612H21.4707V24.2813C21.0588 24.2615 20.6923 24.234 20.3257 24.2241C18.8438 24.1847 17.3618 24.1413 15.8778 24.1236C15.3989 24.1157 15.1644 24.0113 15.19 23.4437C15.2373 22.3066 15.1881 21.1655 15.1959 20.0284C15.1979 19.6185 15.1112 19.1909 15.3378 18.7455H22.7793V14.1084C18.623 14.3941 14.4904 14.676 10.3204 14.9637V38.2182C14.4017 38.6833 18.4614 39.1464 22.5487 39.6135V34.6867C20.0814 34.4797 17.6613 34.2787 15.2511 34.0777V28.8612ZM33.2399 55.7123C22.4305 53.781 11.6743 51.8595 0.864868 49.9282V5.78012C11.6329 3.8567 22.4068 1.93328 33.2399 0" fill="#046DB2"/>
</g>
<path d="M49.6323 25.6214C50.1329 25.9821 50.6334 26.325 51.1143 26.6915C51.4671 26.9615 51.7233 26.863 51.9972 26.5654C52.7638 25.7259 53.5462 24.9002 54.3285 24.0725C54.5828 23.8025 54.6478 23.4891 54.6478 23.1265C54.6419 20.9016 54.6439 18.6766 54.6537 16.4497C54.6577 15.7639 54.3601 15.421 53.6546 15.423C51.5084 15.4328 49.3623 15.4289 47.2162 15.4249C46.7334 15.423 46.3452 15.6102 46.0259 15.959C43.5388 18.6904 41.3908 21.6603 39.6546 24.9258C39.3806 25.4421 39.487 25.7554 39.891 25.8835C41.8618 23.9759 43.8285 22.1963 45.6357 20.269C46.6092 19.2304 47.6084 18.8067 49.0234 18.8835C51.1478 18.9998 51.0946 18.9151 51.1714 21.073C51.2286 22.7481 51.272 24.3543 49.6776 25.4362C49.6599 25.448 49.6638 25.4874 49.6323 25.6214ZM51.1458 37.1777C50.1467 37.1777 49.2835 37.2034 48.3573 37.1935C46.9048 37.1777 44.6523 35.6741 44.5439 35.5992L43.4265 37.0536C43.1171 37.4221 43.2275 37.7059 43.5546 38.0035C44.339 38.7129 45.1174 39.4283 45.8722 40.1693C46.219 40.5102 46.5994 40.6777 47.0743 40.6777C49.1948 40.6738 51.3153 40.6896 53.4338 40.6679C54.4251 40.658 54.6439 40.4078 54.6458 39.4303C54.6478 37.495 54.6123 35.5598 54.6636 33.6265C54.6852 32.8067 54.4251 32.1958 53.8201 31.6834C51.1517 29.4151 48.3671 27.3182 45.2613 25.6727C44.7528 25.4007 44.3705 25.3672 44.0749 26.1457C44.27 26.2994 44.5419 26.4728 44.7686 26.6935C46.7156 28.6031 48.6548 30.5187 50.594 32.4382C50.8345 32.6746 51.1419 32.8855 51.1439 33.2757C51.1478 34.5173 51.1458 35.7588 51.1458 37.1777ZM36.2413 44.7532V40.7034C37.7725 40.861 38.4899 39.7495 39.2801 38.7642C41.3159 36.218 43.2767 33.6226 44.674 30.6665C44.5321 30.3985 44.3744 30.1955 44.1498 30.1423C42.857 31.4035 41.5839 32.6313 40.3246 33.8748C39.3826 34.805 38.4485 35.745 37.5321 36.7008C37.1872 37.0595 36.8167 37.2231 36.2689 37.0812V28.9539C37.1872 29.4565 38.0327 29.9314 38.8899 30.3886C39.489 30.7079 39.5107 30.6901 39.9679 30.0615C38.8761 28.9618 37.7824 27.8582 36.6827 26.7585C36.4364 26.5142 36.2137 26.2875 36.2157 25.8895C36.2294 23.6113 36.2216 21.3312 36.2216 18.9505C36.8916 18.9683 37.5459 18.6845 38.1253 19.1792C38.6042 19.5871 39.0476 20.0364 39.5403 20.4976C40.0763 19.9871 40.4034 19.3802 40.7995 18.8284C41.0084 18.5426 40.8429 18.3396 40.636 18.1465C39.7669 17.3306 38.8958 16.5147 38.0307 15.6949C37.5262 15.218 36.8502 15.5609 36.2531 15.3343V11.383C36.5191 11.1485 36.8266 11.2371 37.1044 11.2371C43.3359 11.2293 49.5653 11.2234 55.7967 11.2312C57.8955 11.2332 58.7883 12.1437 58.7883 14.2366C58.7883 23.3295 58.7903 32.4244 58.7883 41.5173C58.7863 43.9275 57.9488 44.7552 55.5386 44.7552C49.4944 44.7532 43.4482 44.7532 37.404 44.7532C37.0394 44.7532 36.6748 44.7532 36.2413 44.7532Z" fill="#046DB2"/>
</g>
<defs>
<clipPath id="clip0_11_7979">
<rect width="58.2703" height="56" fill="white" transform="translate(0.864868)"/>
</clipPath>
</defs>
</svg>
